<?xml version="1.0" standalone="no"?>
<!DOCTYPE svg PUBLIC "-//W3C//DTD SVG 20010904//EN"
 "http://www.w3.org/TR/2001/REC-SVG-20010904/DTD/svg10.dtd">
<svg version="1.0" xmlns="http://www.w3.org/2000/svg"
 width="200.000000pt" height="200.000000pt" viewBox="0 0 200.000000 200.000000"
 preserveAspectRatio="xMidYMid meet">
<metadata>
Created by potrace 1.11, written by Peter Selinger 2001-2013
</metadata>
<g transform="translate(0.000000,200.000000) scale(0.100000,-0.100000)"
fill="#000000" stroke="none">
<path d="M180 960 c0 -69 3 -91 13 -87 17 5 17 169 0 175 -10 3 -13 -19 -13
-88z"/>
<path d="M260 1032 c-37 -30 -21 -65 37 -83 55 -16 65 -42 19 -47 -22 -3 -34
3 -47 20 -17 22 -18 22 -25 4 -5 -14 -1 -24 15 -38 30 -23 73 -23 102 1 20 16
22 23 14 47 -8 23 -19 31 -55 40 -27 6 -45 16 -45 25 0 20 49 23 65 5 16 -20
30 -20 30 -2 0 19 -39 46 -66 46 -12 0 -32 -8 -44 -18z"/>
<path d="M410 960 l0 -90 55 0 c42 0 55 3 55 15 0 11 -11 15 -39 15 l-39 0 -7
75 c-4 41 -11 75 -16 75 -5 0 -9 -40 -9 -90z"/>
<path d="M545 1042 c-3 -3 -5 -43 -5 -89 l0 -84 67 3 c42 2 68 8 71 16 3 9
-12 12 -52 12 -53 0 -56 1 -56 25 0 23 3 25 51 25 66 0 62 24 -4 28 -39 3 -47
6 -47 23 0 16 7 19 50 19 28 0 50 5 50 10 0 11 -2 11 -73 14 -26 1 -49 0 -52
-2z"/>
<path d="M696 1043 c-13 -13 -5 -22 22 -25 26 -3 27 -5 30 -76 4 -99 26 -94
30 6 3 69 4 72 27 72 31 0 33 19 3 22 -13 0 -42 2 -64 4 -23 1 -45 0 -48 -3z"/>
<path d="M971 1031 c-37 -37 -25 -60 45 -83 47 -16 52 -41 10 -46 -22 -3 -34
3 -47 20 -17 22 -18 22 -25 4 -9 -24 27 -56 65 -56 36 0 71 26 71 54 0 30 -14
41 -68 56 -25 6 -42 16 -39 23 6 18 52 20 67 3 13 -17 40 -22 40 -8 0 21 -28
43 -61 48 -29 5 -41 2 -58 -15z"/>
<path d="M1155 1038 c-31 -17 -45 -39 -45 -74 0 -46 9 -63 41 -79 64 -34 129
1 129 69 0 48 -8 65 -41 81 -33 18 -57 18 -84 3z m79 -34 c35 -34 12 -104 -34
-104 -36 0 -60 23 -60 57 0 53 59 82 94 47z"/>
<path d="M1310 978 c0 -40 4 -79 9 -86 4 -8 26 -16 48 -19 33 -4 45 -1 62 16
19 19 21 31 19 89 -3 78 -22 90 -26 17 -4 -88 -8 -97 -45 -93 l-32 3 -5 69
c-3 43 -10 71 -17 74 -10 3 -13 -15 -13 -70z"/>
<path d="M1484 1037 c-10 -27 1 -160 14 -165 9 -3 12 13 12 59 l0 63 46 -63
c25 -34 51 -60 57 -58 17 5 17 169 0 174 -8 3 -13 -15 -15 -58 l-3 -62 -43 61
c-44 63 -58 73 -68 49z"/>
<path d="M1665 1042 c-3 -3 -5 -43 -5 -89 l0 -83 35 0 c58 0 102 24 110 59 9
41 -2 89 -23 100 -21 10 -109 20 -117 13z m96 -43 c15 -15 19 -28 14 -47 -10
-39 -24 -52 -56 -52 -29 0 -29 1 -29 60 0 57 1 60 25 60 14 0 34 -9 46 -21z"/>
</g>
</svg>
